<svg width="138" height="166" viewBox="0 0 138 166" fill="none" xmlns="http://www.w3.org/2000/svg">
<path d="M20.5167 148.833C20.5167 148.032 20.3832 147.318 20.1163 146.691C19.8494 146.064 19.409 145.503 18.795 145.009C18.1944 144.502 17.3803 144.035 16.3526 143.608C15.3383 143.167 14.0704 142.734 12.5489 142.307C11.0942 141.893 9.77956 141.439 8.60508 140.945C7.4306 140.451 6.42295 139.884 5.58213 139.244C4.75466 138.603 4.1207 137.856 3.68027 137.001C3.23985 136.134 3.01963 135.126 3.01963 133.979C3.01963 132.857 3.25986 131.836 3.74033 130.916C4.2208 129.995 4.89479 129.201 5.76231 128.533C6.64317 127.866 7.67751 127.352 8.86533 126.992C10.0665 126.631 11.3811 126.451 12.8092 126.451C14.8512 126.451 16.6129 126.838 18.0943 127.612C19.5891 128.386 20.7436 129.434 21.5577 130.755C22.3852 132.063 22.7989 133.531 22.7989 135.16H20.3365C20.3365 133.892 20.0362 132.764 19.4356 131.776C18.8484 130.775 17.9942 129.995 16.8731 129.434C15.7654 128.86 14.4107 128.573 12.8092 128.573C11.2076 128.573 9.85964 128.82 8.76524 129.314C7.68418 129.794 6.86338 130.442 6.30283 131.256C5.75563 132.057 5.48203 132.951 5.48203 133.938C5.48203 134.632 5.6155 135.273 5.88242 135.86C6.14935 136.434 6.58311 136.975 7.18369 137.482C7.79763 137.976 8.60508 138.443 9.60606 138.883C10.607 139.31 11.8416 139.717 13.3097 140.104C14.8578 140.532 16.2325 141.005 17.4337 141.526C18.6349 142.046 19.6492 142.647 20.4767 143.328C21.3041 143.995 21.9314 144.776 22.3585 145.67C22.7856 146.564 22.9991 147.605 22.9991 148.793C22.9991 149.981 22.7455 151.049 22.2384 151.996C21.7446 152.93 21.0439 153.724 20.1363 154.378C19.2421 155.032 18.1811 155.533 16.9532 155.88C15.7387 156.227 14.4107 156.4 12.9693 156.4C11.6747 156.4 10.3868 156.234 9.10557 155.9C7.82432 155.566 6.64984 155.052 5.58213 154.358C4.52777 153.651 3.68027 152.743 3.03965 151.636C2.41237 150.528 2.09873 149.207 2.09873 147.672H4.54111C4.54111 148.9 4.78802 149.934 5.28184 150.775C5.77565 151.616 6.42962 152.296 7.24375 152.817C8.07123 153.337 8.97878 153.718 9.96641 153.958C10.9674 154.185 11.9684 154.298 12.9693 154.298C14.5042 154.298 15.8321 154.071 16.9532 153.618C18.0877 153.164 18.9619 152.53 19.5758 151.716C20.2031 150.888 20.5167 149.927 20.5167 148.833ZM29.664 126.852L38.4926 142.727L47.4013 126.852H50.2441L39.7338 145.009V156H37.2714V145.009L26.7412 126.852H29.664ZM73.0047 153.898V156H57.89V153.898H73.0047ZM58.6107 126.852V156H56.1483V126.852H58.6107ZM84.9948 152.376L94.1838 126.852H96.8664L86.0158 156H84.0339L84.9948 152.376ZM75.5055 126.852L84.6545 152.376L85.6554 156H83.6535L72.8229 126.852H75.5055ZM105.834 126.852V156H103.371V126.852H105.834ZM125.331 128.593L115.241 156H112.679L123.689 126.852H125.471L125.331 128.593ZM134.5 156L124.39 128.593L124.25 126.852H126.032L137.062 156H134.5ZM132.698 145.71V147.832H117.223V145.71H132.698Z" fill="white"/>
<path d="M26.8604 29.2002C24.8504 33.2102 23.3804 37.5702 22.5704 42.2102C20.5404 53.7102 22.8404 64.9802 28.3004 74.3402L61.5404 35.3203L26.8704 29.2002H26.8604Z" fill="white"/>
<path d="M66.8106 3.06055C50.4806 3.90055 35.7806 13.1705 27.8906 27.2405L78.6406 36.2005L66.8006 3.06055H66.8106Z" fill="white"/>
<path d="M111.731 71.7103C113.741 67.7003 115.211 63.3403 116.021 58.7003C118.051 47.2003 115.751 35.9503 110.301 26.5903L77.0508 65.5903L111.721 71.7103H111.731Z" fill="white"/>
<path d="M109.15 24.7103C102.24 14.0203 91.0703 6.12028 77.5403 3.73028C74.6803 3.23028 71.8303 2.9903 69.0303 3.0003L86.3403 51.4603L109.15 24.7103Z" fill="white"/>
<path d="M29.4502 76.2302C36.3602 86.9102 47.5302 94.8002 61.0402 97.1902C64.0902 97.7302 67.1102 97.9602 70.1002 97.9102L52.2602 49.4502L29.4502 76.2302Z" fill="white"/>
<path d="M72.3206 97.8205C88.4306 96.8005 102.891 87.5905 110.691 73.6705L60.1406 64.7505L72.3106 97.8205H72.3206Z" fill="white"/>
<path d="M4 82.6104V97.6003H18.65" stroke="white" stroke-width="6"/>
<path d="M18.65 3.31055H4V18.3005" stroke="white" stroke-width="6"/>
<path d="M119.94 97.6003H134.59V82.6104" stroke="white" stroke-width="6"/>
<path d="M134.59 18.3005V3.31055H119.94" stroke="white" stroke-width="6"/>
<path d="M117.52 19.1205C119.21 19.1205 120.58 17.7505 120.58 16.0605C120.58 14.3705 119.21 13.0005 117.52 13.0005C115.83 13.0005 114.46 14.3705 114.46 16.0605C114.46 17.7505 115.83 19.1205 117.52 19.1205Z" fill="white"/>
</svg>
